<svg width="20" height="20" viewBox="0 0 20 20" fill="none" xmlns="http://www.w3.org/2000/svg">
<path d="M17 8.134V5.566C17 4.713 16.296 4 15.4 4H4.6C3.704 4 3 4.713 3 5.566V12.276C3 13.129 3.704 13.842 4.6 13.842H6.2V17H6.203L6.205 16.999L8.372 15.399L8.058 16.653C8.037 16.739 8.021 16.823 8.012 16.908L6.799 17.803C6.58612 17.9599 6.32014 18.027 6.05831 17.9898C5.79647 17.9526 5.55972 17.814 5.399 17.604C5.27016 17.4343 5.20028 17.2271 5.2 17.014V14.842H4.6C3.164 14.842 2 13.693 2 12.276V5.566C2 4.149 3.164 3 4.6 3H15.4C16.836 3 18 4.149 18 5.566V8.69C17.7076 8.43904 17.3675 8.24991 17 8.134Z" fill="#F6F6F6"/>
<path d="M14.807 9.54603L9.97701 14.376C9.69588 14.6575 9.49645 15.0101 9.40001 15.396L9.02501 16.894C8.98782 17.0431 8.98984 17.1992 9.03088 17.3473C9.07192 17.4953 9.15058 17.6302 9.25921 17.7388C9.36784 17.8475 9.50274 17.9261 9.65078 17.9672C9.79882 18.0082 9.95496 18.0102 10.104 17.973L11.602 17.598C11.988 17.502 12.341 17.302 12.622 17.02L17.452 12.19C17.6278 12.0169 17.7676 11.8106 17.8634 11.5831C17.9591 11.3556 18.0088 11.1115 18.0097 10.8647C18.0106 10.6179 17.9627 10.3734 17.8687 10.1452C17.7746 9.91702 17.6363 9.70973 17.4618 9.53525C17.2873 9.36078 17.0799 9.22258 16.8517 9.12862C16.6235 9.03466 16.3789 8.98681 16.1322 8.98781C15.8854 8.98881 15.6412 9.03865 15.4138 9.13446C15.1864 9.23027 14.9801 9.37015 14.807 9.54603Z" fill="#F6F6F6"/>
</svg>
